<?xml version="1.0" encoding="iso-8859-1"?>
<!-- Uploaded to: SVG Repo, www.svgrepo.com, Generator: SVG Repo Mixer Tools -->
<svg version="1.1" id="Layer_1" xmlns="http://www.w3.org/2000/svg" xmlns:xlink="http://www.w3.org/1999/xlink" 
	 viewBox="0 0 511.999 511.999" xml:space="preserve">
<g>
	<path style="fill:#0BBBDA;" d="M312.445,67.485c-0.01,0.696-0.052,1.381-0.156,2.087v0.01c-0.062,0.53-0.145,1.059-0.27,1.589
		l-17.081,72.208h-77.878L199.98,71.171c-0.125-0.53-0.208-1.059-0.27-1.589c-0.104-0.706-0.145-1.402-0.156-2.098
		c-0.073-9.439,7.559-17.559,17.465-17.559h77.961C304.886,49.926,312.518,58.046,312.445,67.485z"/>
	<polygon style="fill:#0BBBDA;" points="331.281,444.506 256,501.616 180.718,444.506 212.71,179.411 217.061,143.379 
		294.938,143.379 299.393,180.261 	"/>
</g>
<g>
	<polygon style="fill:#ECF0F1;" points="479.28,10.385 479.28,63.684 365.745,174.447 354.032,151.468 312.29,69.582 312.29,69.572 
		311.407,67.838 312.445,67.485 	"/>
	<polygon style="fill:#ECF0F1;" points="200.592,67.838 199.71,69.582 158.331,150.752 146.254,174.447 32.719,63.684 
		32.719,10.385 199.554,67.485 	"/>
</g>
<g>
	<path style="fill:#FFCF70;" d="M217.061,143.379l-4.351,36.031l-54.379-28.659l41.379-81.169c0.062,0.53,0.145,1.059,0.27,1.589
		L217.061,143.379z"/>
	<path style="fill:#FFCF70;" d="M354.032,151.468l-54.639,28.794l-4.455-36.883l17.081-72.208c0.125-0.53,0.208-1.059,0.27-1.589
		L354.032,151.468z"/>
</g>
<g>
	<rect x="383.2" y="310.815" style="fill:#ECF0F1;" width="89.995" height="137.76"/>
	<rect x="38.804" y="310.815" style="fill:#ECF0F1;" width="89.995" height="137.76"/>
</g>
<g>
	<rect x="383.2" y="310.815" style="fill:#FFCF70;" width="89.995" height="48.928"/>
	<rect x="38.804" y="310.815" style="fill:#FFCF70;" width="89.995" height="48.928"/>
</g>
<g>
	<path style="fill:#231F20;" d="M274.539,320.991c-5.693,0.687-9.752,5.86-9.065,11.553l2.613,21.649
		c0.637,5.271,5.117,9.141,10.296,9.141c0.415,0,0.835-0.025,1.257-0.076c5.693-0.687,9.752-5.859,9.064-11.553l-2.613-21.649
		C285.405,324.362,280.228,320.302,274.539,320.991z"/>
	<path style="fill:#231F20;" d="M270.806,290.064c5.693-0.687,9.752-5.859,9.064-11.553l-2.613-21.649
		c-0.686-5.693-5.862-9.752-11.553-9.064c-5.693,0.687-9.752,5.86-9.065,11.553L259.252,281c0.637,5.271,5.117,9.141,10.296,9.141
		C269.964,290.14,270.383,290.115,270.806,290.064z"/>
	<path style="fill:#231F20;" d="M251.846,433.297l-17.372-13.179c-4.568-3.465-11.083-2.573-14.549,1.997
		s-2.572,11.083,1.997,14.549l17.372,13.179c1.877,1.424,4.081,2.112,6.269,2.112c3.137,0,6.237-1.416,8.28-4.109
		C257.309,443.276,256.415,436.763,251.846,433.297z"/>
	<path style="fill:#231F20;" d="M283.372,394.184c-5.693,0.687-9.752,5.86-9.064,11.553l2.307,19.115
		c-0.289,2.561,0.369,5.232,2.051,7.445c2.043,2.688,5.141,4.103,8.276,4.103c2.189,0,4.396-0.691,6.274-2.116l0.258-0.195
		c2.936-2.23,4.469-5.851,4.027-9.513l-2.574-21.328C294.237,397.554,289.06,393.494,283.372,394.184z"/>
	<path style="fill:#231F20;" d="M261.972,216.871c5.693-0.687,9.752-5.86,9.065-11.553l-2.613-21.649
		c-0.687-5.693-5.861-9.751-11.553-9.064c-5.693,0.687-9.752,5.86-9.064,11.553l2.613,21.649c0.635,5.271,5.116,9.141,10.295,9.141
		C261.13,216.947,261.55,216.922,261.972,216.871z"/>
	<path style="fill:#231F20;" d="M485.318,1.937c-2.727-1.949-6.226-2.461-9.4-1.377L319.441,54.115
		c-1.255-2.318-2.833-4.468-4.709-6.359c-5.256-5.298-12.271-8.215-19.752-8.215h-77.961c-7.48,0-14.496,2.918-19.752,8.215
		c-1.874,1.889-3.452,4.038-4.706,6.357L36.081,0.56c-3.172-1.086-6.674-0.573-9.4,1.377c-2.727,1.949-4.346,5.095-4.346,8.447
		v53.299c0,2.798,1.13,5.478,3.133,7.433l113.535,110.763c1.954,1.908,4.564,2.951,7.25,2.951c0.561,0,1.126-0.046,1.687-0.138
		c3.257-0.537,6.065-2.59,7.565-5.531l7.298-14.315l38.744,20.418l-31.138,257.997c-0.442,3.663,1.093,7.286,4.033,9.517
		l75.282,57.11c1.856,1.407,4.066,2.111,6.276,2.111s4.42-0.704,6.276-2.111l75.282-57.11c2.94-2.23,4.475-5.853,4.033-9.517
		l-31.035-257.145l39.005-20.556l6.933,13.601c1.498,2.942,4.307,4.995,7.565,5.53c0.563,0.092,1.127,0.138,1.687,0.138
		c2.687,0,5.296-1.044,7.25-2.951L486.531,71.116c2.003-1.954,3.133-4.634,3.133-7.433V10.384
		C489.665,7.032,488.046,3.886,485.318,1.937z M212.009,62.384c0.94-0.947,2.571-2.075,5.01-2.075h77.961
		c2.439,0,4.07,1.128,5.01,2.075c1.343,1.353,2.072,3.123,2.072,4.987c0,0.531-0.144,1.399-0.147,1.408l-15.19,64.215h-61.45
		l-15.186-64.197c-0.009-0.04-0.147-1.153-0.152-1.393C209.923,65.527,210.659,63.745,212.009,62.384z M143.408,157.163
		L43.103,59.308V24.914L185.91,73.79l-36.83,72.246c-0.003,0.007-0.006,0.013-0.009,0.021L143.408,157.163z M204.21,163.193
		l-31.973-16.851l23.808-46.704l10.488,44.332l-0.018,0.144L204.21,163.193z M256,488.583l-64.259-48.748l34.526-286.072h59.467
		l0.063,0.529l34.461,285.543L256,488.583z M307.894,164.045l-2.425-20.075l10.486-44.331l2.385,4.679l21.787,42.74L307.894,164.045
		z M468.897,59.308l-100.306,97.857l-5.302-10.4c-0.002-0.004-0.003-0.007-0.005-0.011l-34.862-68.389l-2.331-4.573l142.807-48.876
		V59.308z"/>
	<path style="fill:#231F20;" d="M473.192,300.432H383.2c-5.735,0-10.384,4.649-10.384,10.384v137.757
		c0,5.735,4.649,10.384,10.384,10.384h89.992c5.735,0,10.384-4.649,10.384-10.384V310.816
		C483.576,305.081,478.927,300.432,473.192,300.432z M393.583,321.2h69.225v28.165h-69.225V321.2z M393.583,438.189v-68.057h69.225
		v68.057H393.583z"/>
	<path style="fill:#231F20;" d="M128.799,300.432H38.808c-5.735,0-10.384,4.649-10.384,10.384v137.757
		c0,5.735,4.649,10.384,10.384,10.384H128.8c5.735,0,10.384-4.649,10.384-10.384V310.816
		C139.183,305.081,134.534,300.432,128.799,300.432z M49.192,321.2h69.225v28.165H49.192V321.2z M49.192,438.189v-68.057h69.225
		v68.057H49.192z"/>
</g>
</svg>