<?xml version="1.0" encoding="iso-8859-1"?>
<!-- Uploaded to: SVG Repo, www.svgrepo.com, Generator: SVG Repo Mixer Tools -->
<svg version="1.1" id="Layer_1" xmlns="http://www.w3.org/2000/svg" xmlns:xlink="http://www.w3.org/1999/xlink" 
	 viewBox="0 0 512.001 512.001" xml:space="preserve">
<rect x="14.051" y="134.021" transform="matrix(-0.7071 0.7071 -0.7071 -0.7071 292.0709 227.7878)" style="fill:#0BBBDA;" width="169.617" height="80.726"/>
<path style="fill:#FFBAA8;" d="M197.827,176.146l-21.819-21.819l-97.844,97.844l22.506,22.506
	c5.975,5.975,10.675,13.102,13.813,20.949l0.587,1.466c3.138,7.846,7.838,14.973,13.813,20.949L245.182,434.34
	c7.815,7.815,20.486,7.815,28.301,0l0,0c7.844-7.844,7.897-20.614,0.053-28.459l12.046,12.046c7.815,7.815,20.486,7.815,28.301,0
	l0,0c7.844-7.844,7.897-20.614,0.053-28.459l13.94,13.94c7.815,7.815,20.486,7.815,28.301,0l0,0c7.841-7.841,7.841-20.671,0-28.511
	l-13.835-13.835c7.844,7.844,20.457,7.95,28.301,0.106l0.053-0.053c7.841-7.841,7.841-20.671,0-28.511L243.196,205.102
	c-6.418-6.418-14.16-11.359-22.685-14.478l0,0C211.986,187.505,204.245,182.565,197.827,176.146z"/>
<rect x="332.558" y="121.714" transform="matrix(0.7071 0.7071 -0.7071 0.7071 232.6248 -249.4015)" style="fill:#0BBBDA;" width="169.617" height="68.776"/>
<path style="fill:#FFBAA8;" d="M295.671,166.206l-83.213,0.116c-8.788,0-16.008,7.216-16.034,16.029l-0.001-0.001
	c0.357,15.507,12.998,28.622,28.863,28.622l23.757-0.103l114.353,112.899l26.113-26.113c5.975-5.975,12.752-15.214,15.891-23.061
	l0.595-1.457c3.138-7.846,7.847-14.965,13.823-20.94l22.506-22.506l-97.844-97.844l-21.819,21.819
	C316.241,160.084,307.799,164.528,295.671,166.206z"/>
<g>
	<path style="fill:#231F20;" d="M113.474,168.676c2.648,0,5.297-1.01,7.316-3.031l15.364-15.364c4.041-4.04,4.041-10.592,0-14.634
		c-4.04-4.042-10.592-4.04-14.634,0l-15.364,15.364c-4.04,4.04-4.04,10.592,0,14.634
		C108.178,167.666,110.827,168.676,113.474,168.676z"/>
	<path style="fill:#231F20;" d="M74.749,211.687l9.46-9.46c4.04-4.04,4.04-10.592,0-14.633s-10.592-4.04-14.633,0l-9.46,9.46
		c-4.04,4.04-4.04,10.592,0,14.633c2.021,2.021,4.669,3.031,7.316,3.031C70.08,214.718,72.729,213.708,74.749,211.687z"/>
	<path style="fill:#231F20;" d="M508.97,184.435L389.032,64.497c-4.04-4.04-10.593-4.04-14.633,0l-48.635,48.635
		c-1.94,1.94-3.031,4.572-3.031,7.316s1.091,5.376,3.031,7.316l4.082,4.082l-14.502,14.502c-5.165,5.165-11.666,8.197-20.419,9.511
		l-82.465,0.115c-5.684,0-10.953,1.821-15.269,4.903l-6.551-6.55l4.047-4.047c1.94-1.94,3.031-4.572,3.031-7.316
		c0-2.744-1.091-5.376-3.031-7.316l-57.085-57.084c-4.039-4.041-10.592-4.041-14.633,0L3.031,198.501
		C1.091,200.441,0,203.073,0,205.817s1.091,5.376,3.031,7.316l57.085,57.085c2.021,2.021,4.669,3.031,7.316,3.031
		c2.648,0,5.297-1.01,7.316-3.031l3.415-3.414l15.188,15.189c5.013,5.012,8.89,10.892,11.523,17.474l0.587,1.466
		c3.679,9.201,9.098,17.417,16.104,24.423l116.299,116.299c5.918,5.918,13.692,8.878,21.467,8.878
		c7.775,0,15.548-2.959,21.467-8.878c2.976-2.977,5.21-6.419,6.7-10.093c11.126,4.883,24.604,2.778,33.701-6.319
		c2.719-2.72,4.863-5.865,6.37-9.287c11.505,6.223,26.213,4.48,35.925-5.232c9.722-9.722,11.497-24.428,5.327-35.97
		c3.309-1.457,6.403-3.536,9.103-6.235c0.011-0.011,0.077-0.077,0.088-0.088c11.895-11.895,11.895-31.25,0-43.145l-0.751-0.751
		l19.565-19.564c5.818-5.819,14.071-16.259,18.152-26.465l0.624-1.527c2.625-6.563,6.505-12.439,11.533-17.467l15.189-15.189
		l3.38,3.38c1.94,1.94,4.572,3.031,7.316,3.031c2.744,0,5.376-1.091,7.316-3.031l48.635-48.635
		C513.011,195.028,513.011,188.476,508.97,184.435z M24.98,205.817l105.305-105.305l42.453,42.452l-4.03,4.03
		c-0.005,0.005-0.012,0.01-0.018,0.016l-97.844,97.845c-0.005,0.005-0.01,0.012-0.017,0.018l-3.398,3.398L24.98,205.817z
		 M348.859,396.092c-3.768,3.769-9.9,3.769-13.667,0l-80.116-79.696c-0.757-0.757-1.604-1.373-2.505-1.847
		c-3.904-2.052-8.846-1.436-12.129,1.847c-2.441,2.441-3.396,5.795-2.889,8.96c0.332,2.077,1.288,4.072,2.889,5.672l67.614,67.613
		c2.255,3.75,1.761,8.714-1.492,11.967c-1.826,1.826-4.253,2.831-6.834,2.831c-2.582,0-5.008-1.006-6.833-2.831l-74.434-74.014
		c-4.04-4.04-10.592-4.04-14.634,0c-0.252,0.252-0.489,0.515-0.71,0.786c-3.315,4.064-3.078,10.059,0.71,13.847l63.827,63.827
		c2.255,3.75,1.76,8.714-1.493,11.967c-3.768,3.768-9.9,3.767-13.667,0l-116.299-116.3c-5.013-5.013-8.89-10.892-11.522-17.474
		l-0.587-1.467c-3.68-9.199-9.098-17.416-16.104-24.422l-15.188-15.189l83.21-83.21l10.267,10.266
		c-0.122,1.015-0.193,2.045-0.197,3.092c0,0.089,0,0.179,0.002,0.269c0.493,21.356,18.08,38.731,39.252,38.731l19.361-0.085
		L363.379,339.92c3.826,3.826,3.826,10.052,0.035,13.843c-0.011,0.011-0.077,0.076-0.088,0.088
		c-3.803,3.802-9.807,3.756-13.667-0.107c-0.591-0.591-60.494-60.075-60.494-60.075c-1.146-1.145-2.497-1.955-3.933-2.45
		c-2.677-0.925-5.654-0.732-8.196,0.604c-0.901,0.474-1.748,1.089-2.505,1.846c-2.272,2.273-3.267,5.34-2.983,8.309
		c0.032,0.33,0.079,0.658,0.142,0.984c0.126,0.652,0.316,1.294,0.568,1.917c0.505,1.246,1.262,2.413,2.272,3.423
		c0,0,74.985,74.906,75.418,75.222C352.633,387.352,352.276,392.677,348.859,396.092z M412.5,244.887
		c-7.02,7.02-12.441,15.24-16.084,24.351l-0.624,1.54c-2.35,5.875-7.942,13.955-13.6,19.613l-19.517,19.561l-54.988-54.988
		c19.125-0.44,30.032-5.861,30.674-6.189l-9.425-18.423l0.102-0.052c-0.162,0.078-16.163,7.572-44.179,1.835l-28.569-28.569
		l-0.093,0.04c-1.925-1.836-4.484-2.678-7.153-2.678c-0.014,0-0.03,0-0.044,0l-23.712-0.099c-9.926,0-18.198-8.423-18.513-18.559
		c0.07-3.047,2.649-5.6,5.699-5.6l83.213-0.116c0.47,0,0.939-0.033,1.404-0.097c13.6-1.882,24.357-6.944,32.886-15.473
		l14.503-14.501l83.21,83.213L412.5,244.887z M453.019,225.754l-3.375-3.375c-0.002-0.002-0.003-0.003-0.005-0.005l-97.843-97.843
		c-0.002-0.002-0.003-0.003-0.005-0.005l-4.077-4.077l34.002-34.002L487.02,191.751L453.019,225.754z"/>
</g>
</svg>