<!DOCTYPE svg PUBLIC "-//W3C//DTD SVG 1.1//EN" "http://www.w3.org/Graphics/SVG/1.1/DTD/svg11.dtd">
<!-- Uploaded to: SVG Repo, www.svgrepo.com, Transformed by: SVG Repo Mixer Tools -->
<svg version="1.1" id="Layer_1" xmlns="http://www.w3.org/2000/svg" xmlns:xlink="http://www.w3.org/1999/xlink" viewBox="0 0 512 512" xml:space="preserve" width="800px" height="800px" fill="#000000">
<g id="SVGRepo_bgCarrier" stroke-width="0"/>
<g id="SVGRepo_tracerCarrier" stroke-linecap="round" stroke-linejoin="round"/>
<g id="SVGRepo_iconCarrier"> <g> <path style="fill:#FFAB5F;" d="M113.109,471.843c0,22.178,17.979,40.157,40.157,40.157h205.469 c22.178,0,40.157-17.979,40.157-40.157v-63.381L256,385.707l-142.891,22.756V471.843z"/> <path style="fill:#FFAB5F;" d="M398.891,40.157C398.891,17.979,380.912,0,358.735,0H153.265c-22.178,0-40.157,17.979-40.157,40.157 v63.381L256,126.293l142.891-22.756V40.157z"/> </g> <rect x="113.106" y="103.538" style="fill:#0A547B;" width="285.787" height="304.924"/> <path style="fill:#FF385C;" d="M279.893,60.302h-47.787c-4.713,0-8.533-3.82-8.533-8.533s3.821-8.533,8.533-8.533h47.787 c4.713,0,8.533,3.82,8.533,8.533S284.606,60.302,279.893,60.302z"/> <circle style="fill:#FFFFFF;" cx="256" cy="460.231" r="17.067"/> </g>
</svg>